{"title":"Nirvana - In Utero [16-bit 44.1kHz flac] MC Lurken Mix","uid":9190833,"size":361818245,"categoryP":"audio","categoryS":"flac","magnet":"?xt=urn:btih:eb603218d6d0f21bfe675a6f3387ec0c40cfdf3e&amp;dn=Nirvana+-+In+Utero+%5B16-bit+44.1kHz+flac%5D+MC+Lurken+Mix&amp;tr=udp%3A%2F%2Ftracker.openbittorrent.com%3A80&amp;tr=udp%3A%2F%2Fopen.demonii.com%3A1337&amp;tr=udp%3A%2F%2Ftracker.coppersurfer.tk%3A6969&amp;tr=udp%3A%2F%2Fexodus.desync.com%3A6969","seeders":2,"leechers":0,"uploader":"beavis39","files":-1,"time":1384384147,"description":"Nirvana - In Utero [16-bit 44.1kHz flac] MC Lurken Mix\n\n\n\n**MC Lurken Mix featuring custom Izotope Ozone 5 VST (EQ, Dynamics, Imaging, Dither) and 64-bit/384kHz processing. Presented in high resolution 24-bit/96kHz flac**\n\n\n\nFrom original 1993 release\n\n\n\n1 - Serve The Servants\n2 - Scentless Apprentice\n3 - Heart-Shaped Box\n4 - Rape Me\n5 - Frances Farmer Will Have Her Revenge On Seattle\n6 - Dumb\n7 - Very Ape\n8 - Milk It\n9 - Pennyroyal Tea\n10 - Radio Friendly Unit Shifter\n11 - Tourette's\n12 - All Apologies\n13 - Gallons Of Rubbing Alcohol Flow Through The Strip*\n     *hidden track (19 minutes silence removed)\n\n\n\nfoobar2000 1.2.9 / Dynamic Range Meter 1.1.1\nlog date: 2013-11-11 00:02:15\n\n--------------------------------------------------------------------------------\nAnalyzed: Nirvana / In Utero\n--------------------------------------------------------------------------------\n\nDR         Peak         RMS     Duration Track\n--------------------------------------------------------------------------------\nDR10       0.00 dB   -10.65 dB      3:37 01-Serve The Servants\nDR9        0.00 dB    -9.94 dB      3:48 02-Scentless Apprentice\nDR9        0.00 dB   -11.01 dB      4:42 03-Heart-Shaped Box\nDR9        0.00 dB   -10.74 dB      2:50 04-Rape Me\nDR9        0.00 dB   -10.54 dB      4:10 05-Frances Farmer Will Have Her Revenge On Seattle\nDR10       0.00 dB   -11.54 dB      2:32 06-Dumb\nDR10       0.00 dB   -10.73 dB      1:56 07-Very Ape\nDR9        0.00 dB   -10.81 dB      3:55 08-Milk It\nDR9        0.00 dB   -11.45 dB      3:37 09-Pennyroyal Tea\nDR10       0.00 dB   -11.13 dB      4:51 10-Radio Friendly Unit Shifter\nDR9        0.00 dB   -10.19 dB      1:35 11-Tourette's\nDR10       0.00 dB   -12.86 dB      4:54 12-All Apologies\nDR10       0.00 dB   -13.26 dB      7:36 13-Gallons Of Rubbing Alcohol Flow Through The Strip\n--------------------------------------------------------------------------------\n\nNumber of tracks:  13\nOfficial DR value: DR9\n\nSamplerate:        44100 Hz\nChannels:          2\nBits per sample:   16\nBitrate:           1411 kbps\nCodec:             PCM\n\n\n\nenjoy the music :)","torrent":{"xt":"urn:btih:eb603218d6d0f21bfe675a6f3387ec0c40cfdf3e","amp;dn":"Nirvana+-+In+Utero+%5B16-bit+44.1kHz+flac%5D+MC+Lurken+Mix","amp;tr":["udp%3A%2F%2Ftracker.openbittorrent.com%3A80","udp%3A%2F%2Fopen.demonii.com%3A1337","udp%3A%2F%2Ftracker.coppersurfer.tk%3A6969","udp%3A%2F%2Fexodus.desync.com%3A6969"],"infoHash":"eb603218d6d0f21bfe675a6f3387ec0c40cfdf3e","infoHashBuffer":{"type":"Buffer","data":[235,96,50,24,214,208,242,27,254,103,90,111,51,135,236,12,64,207,223,62]},"announce":[],"urlList":[]}}